<mxfile host="app.diagrams.net" agent="Mozilla/5.0 (Macintosh; Intel Mac OS X 10_15_7) AppleWebKit/605.1.15 (KHTML, like Gecko) Version/18.5 Safari/605.1.15" version="28.0.7">
  <diagram name="Page-1" id="18Pagq21mEVorvE74RaG">
    <mxGraphModel dx="628" dy="509" grid="1" gridSize="10" guides="1" tooltips="1" connect="1" arrows="1" fold="1" page="1" pageScale="1" pageWidth="850" pageHeight="1100" math="0" shadow="0">
      <root>
        <mxCell id="0" />
        <mxCell id="1" parent="0" />
        <mxCell id="L5FgjO2Sp3OIrIS0eBnr-1" value="USB-COMPATIBLE DEVICE" style="whiteSpace=wrap;html=1;align=center;" vertex="1" parent="1">
          <mxGeometry x="280" y="300" width="130" height="50" as="geometry" />
        </mxCell>
        <mxCell id="L5FgjO2Sp3OIrIS0eBnr-4" value="USB PORT" style="whiteSpace=wrap;html=1;align=center;" vertex="1" parent="1">
          <mxGeometry x="500" y="310" width="100" height="40" as="geometry" />
        </mxCell>
        <mxCell id="L5FgjO2Sp3OIrIS0eBnr-8" value="Vendor ID" style="ellipse;whiteSpace=wrap;html=1;align=center;fontStyle=4;" vertex="1" parent="1">
          <mxGeometry x="295" y="230" width="100" height="40" as="geometry" />
        </mxCell>
        <mxCell id="L5FgjO2Sp3OIrIS0eBnr-10" value="Name" style="ellipse;whiteSpace=wrap;html=1;align=center;" vertex="1" parent="1">
          <mxGeometry x="130" y="305" width="100" height="40" as="geometry" />
        </mxCell>
        <mxCell id="L5FgjO2Sp3OIrIS0eBnr-12" value="" style="endArrow=none;html=1;rounded=0;" edge="1" parent="1" source="L5FgjO2Sp3OIrIS0eBnr-10" target="L5FgjO2Sp3OIrIS0eBnr-1">
          <mxGeometry relative="1" as="geometry">
            <mxPoint x="150" y="420" as="sourcePoint" />
            <mxPoint x="310" y="420" as="targetPoint" />
          </mxGeometry>
        </mxCell>
        <mxCell id="L5FgjO2Sp3OIrIS0eBnr-15" value="" style="endArrow=none;html=1;rounded=0;" edge="1" parent="1" source="L5FgjO2Sp3OIrIS0eBnr-1" target="L5FgjO2Sp3OIrIS0eBnr-8">
          <mxGeometry relative="1" as="geometry">
            <mxPoint x="350" y="330" as="sourcePoint" />
            <mxPoint x="510" y="330" as="targetPoint" />
          </mxGeometry>
        </mxCell>
        <mxCell id="L5FgjO2Sp3OIrIS0eBnr-18" value="Port Number" style="ellipse;whiteSpace=wrap;html=1;align=center;fontStyle=4;" vertex="1" parent="1">
          <mxGeometry x="500" y="240" width="100" height="40" as="geometry" />
        </mxCell>
        <mxCell id="L5FgjO2Sp3OIrIS0eBnr-19" value="" style="endArrow=none;html=1;rounded=0;" edge="1" parent="1" source="L5FgjO2Sp3OIrIS0eBnr-4" target="L5FgjO2Sp3OIrIS0eBnr-18">
          <mxGeometry relative="1" as="geometry">
            <mxPoint x="370" y="330" as="sourcePoint" />
            <mxPoint x="370" y="300" as="targetPoint" />
          </mxGeometry>
        </mxCell>
        <mxCell id="L5FgjO2Sp3OIrIS0eBnr-25" value="1" style="shape=wire;html=1;rounded=0;endArrow=none;endFill=0;" edge="1" parent="1">
          <mxGeometry x="0.0064" relative="1" as="geometry">
            <mxPoint x="353.258064516129" y="350" as="sourcePoint" />
            <mxPoint x="383.3943661971831" y="453.8028169014084" as="targetPoint" />
            <mxPoint as="offset" />
          </mxGeometry>
        </mxCell>
        <mxCell id="L5FgjO2Sp3OIrIS0eBnr-27" value="1" style="shape=wire;html=1;rounded=0;dashed=1;endArrow=none;endFill=0;" edge="1" parent="1" source="L5FgjO2Sp3OIrIS0eBnr-4" target="L5FgjO2Sp3OIrIS0eBnr-37">
          <mxGeometry x="-0.0008" relative="1" as="geometry">
            <mxPoint x="440" y="410" as="sourcePoint" />
            <mxPoint x="413.52941176470586" y="449.4117647058823" as="targetPoint" />
            <mxPoint as="offset" />
          </mxGeometry>
        </mxCell>
        <mxCell id="L5FgjO2Sp3OIrIS0eBnr-30" value="N" style="shape=link;html=1;rounded=0;" edge="1" parent="1" source="L5FgjO2Sp3OIrIS0eBnr-37" target="L5FgjO2Sp3OIrIS0eBnr-38">
          <mxGeometry x="0.0039" relative="1" as="geometry">
            <mxPoint x="390" y="500" as="sourcePoint" />
            <mxPoint x="510" y="480" as="targetPoint" />
            <mxPoint as="offset" />
          </mxGeometry>
        </mxCell>
        <mxCell id="L5FgjO2Sp3OIrIS0eBnr-33" value="Block Number" style="ellipse;whiteSpace=wrap;html=1;align=center;fontStyle=4;" vertex="1" parent="1">
          <mxGeometry x="490" y="600" width="100" height="40" as="geometry" />
        </mxCell>
        <mxCell id="L5FgjO2Sp3OIrIS0eBnr-36" value="" style="shape=wire;html=1;rounded=0;endArrow=none;endFill=0;" edge="1" parent="1" source="L5FgjO2Sp3OIrIS0eBnr-38" target="L5FgjO2Sp3OIrIS0eBnr-33">
          <mxGeometry x="0.0064" relative="1" as="geometry">
            <mxPoint x="440" y="500" as="sourcePoint" />
            <mxPoint x="469" y="593" as="targetPoint" />
            <mxPoint as="offset" />
          </mxGeometry>
        </mxCell>
        <mxCell id="L5FgjO2Sp3OIrIS0eBnr-37" value="Openned" style="shape=rhombus;double=1;perimeter=rhombusPerimeter;whiteSpace=wrap;html=1;align=center;" vertex="1" parent="1">
          <mxGeometry x="330" y="450" width="120" height="60" as="geometry" />
        </mxCell>
        <mxCell id="L5FgjO2Sp3OIrIS0eBnr-38" value="USB BLOCK DEVICE" style="shape=ext;margin=3;double=1;whiteSpace=wrap;html=1;align=center;" vertex="1" parent="1">
          <mxGeometry x="335" y="595" width="110" height="50" as="geometry" />
        </mxCell>
      </root>
    </mxGraphModel>
  </diagram>
</mxfile>
